<svg xmlns="http://www.w3.org/2000/svg" height="100%" count="100%"><circle cx="50%" cy="50%" r="5%" fill="#4194b3" fill-opacity=".3"/><circle cx="50%" cy="50%" r="10%" fill="#4194b3" fill-opacity=".3"/><circle cx="50%" cy="50%" r="15%" fill="#4194b3" fill-opacity=".3"/><circle cx="50%" cy="50%" r="20%" fill="#4194b3" fill-opacity=".3"/><circle cx="50%" cy="50%" r="25%" fill="#4194b3" fill-opacity=".3"/><circle cx="50%" cy="50%" r="30%" fill="#4194b3" fill-opacity=".3"/><circle cx="50%" cy="50%" r="35%" fill="#4194b3" fill-opacity=".3"/><circle cx="50%" cy="50%" r="40%" fill="#4194b3" fill-opacity=".3"/><circle cx="50%" cy="50%" r="45%" fill="#4194b3" fill-opacity=".3"/><circle cx="50%" cy="50%" r="50%" fill="#4194b3" fill-opacity=".3"/><circle cx="50%" cy="-10%" r="20%" fill="#25a2cf" fill-opacity=".2"/><circle cx="50%" cy="-10%" r="30%" fill="#25a2cf" fill-opacity=".2"/><circle cx="50%" cy="-10%" r="40%" fill="#25a2cf" fill-opacity=".2"/><circle cx="50%" cy="-10%" r="50%" fill="#25a2cf" fill-opacity=".2"/><circle cx="50%" cy="-10%" r="60%" fill="#25a2cf" fill-opacity=".2"/><circle cx="50%" cy="-10%" r="70%" fill="#25a2cf" fill-opacity=".2"/><circle cx="50%" cy="-10%" r="80%" fill="#25a2cf" fill-opacity=".2"/><circle cx="50%" cy="-10%" r="90%" fill="#25a2cf" fill-opacity=".2"/><circle cx="50%" cy="-10%" r="100%" fill="#25a2cf" fill-opacity=".2"/><circle cx="0" cy="0" r="10%" fill="#007099" fill-opacity=".2"/><circle cx="0" cy="0" r="20%" fill="#007099" fill-opacity=".2"/><circle cx="0" cy="0" r="30%" fill="#007099" fill-opacity=".2"/><circle cx="0" cy="0" r="40%" fill="#007099" fill-opacity=".2"/><circle cx="0" cy="0" r="50%" fill="#007099" fill-opacity=".2"/><circle cx="0" cy="0" r="60%" fill="#007099" fill-opacity=".2"/><circle cx="0" cy="0" r="70%" fill="#007099" fill-opacity=".2"/><circle cx="100%" cy="0" r="10%" fill="#7ddcff" fill-opacity=".1"/><circle cx="100%" cy="0" r="20%" fill="#7ddcff" fill-opacity=".1"/><circle cx="100%" cy="0" r="30%" fill="#7ddcff" fill-opacity=".1"/><circle cx="100%" cy="0" r="40%" fill="#7ddcff" fill-opacity=".1"/><circle cx="100%" cy="0" r="50%" fill="#7ddcff" fill-opacity=".1"/><circle cx="100%" cy="0" r="60%" fill="#7ddcff" fill-opacity=".1"/><circle cx="100%" cy="0" r="70%" fill="#7ddcff" fill-opacity=".1"/><circle cx="100%" cy="100%" r="10%" fill="#0081b0" fill-opacity=".1"/><circle cx="100%" cy="100%" r="20%" fill="#0081b0" fill-opacity=".1"/><circle cx="100%" cy="100%" r="30%" fill="#0081b0" fill-opacity=".1"/><circle cx="100%" cy="100%" r="40%" fill="#0081b0" fill-opacity=".1"/><circle cx="100%" cy="100%" r="50%" fill="#0081b0" fill-opacity=".1"/><circle cx="100%" cy="100%" r="60%" fill="#0081b0" fill-opacity=".1"/><circle cx="100%" cy="100%" r="70%" fill="#0081b0" fill-opacity=".1"/><circle cx="0%" cy="100%" r="10%" fill="#66d6ff" fill-opacity=".1"/><circle cx="0%" cy="100%" r="20%" fill="#66d6ff" fill-opacity=".1"/><circle cx="0%" cy="100%" r="30%" fill="#66d6ff" fill-opacity=".1"/><circle cx="0%" cy="100%" r="40%" fill="#66d6ff" fill-opacity=".1"/><circle cx="0%" cy="100%" r="50%" fill="#66d6ff" fill-opacity=".1"/><circle cx="0%" cy="100%" r="60%" fill="#66d6ff" fill-opacity=".1"/><circle cx="0%" cy="100%" r="70%" fill="#66d6ff" fill-opacity=".1"/></svg>